<svg width="20" height="20" viewBox="0 0 20 20" fill="none" xmlns="http://www.w3.org/2000/svg">
<path d="M9.6 0C7.05392 0 4.61212 1.01143 2.81178 2.81178C1.01143 4.61212 0 7.05392 0 9.6C0 12.1461 1.01143 14.5879 2.81178 16.3882C4.61212 18.1886 7.05392 19.2 9.6 19.2C12.1461 19.2 14.5879 18.1886 16.3882 16.3882C18.1886 14.5879 19.2 12.1461 19.2 9.6C19.2 7.05392 18.1886 4.61212 16.3882 2.81178C14.5879 1.01143 12.1461 0 9.6 0ZM4.8 4.8H14.4C14.5716 4.8 14.7372 4.8372 14.8908 4.9056L9.6 11.0772L4.3092 4.9056C4.46332 4.83555 4.63071 4.79954 4.8 4.8ZM3.6 13.2V6L3.6024 5.9244L7.1208 10.0296L3.6408 13.5096C3.61331 13.4087 3.59959 13.3046 3.6 13.2ZM14.4 14.4H4.8C4.6944 14.4 4.59 14.3856 4.4904 14.3592L7.9056 10.944L9.6012 12.9216L11.2968 10.944L14.712 14.3592C14.6111 14.3867 14.507 14.4004 14.4024 14.4H14.4ZM15.6 13.2C15.6 13.3056 15.5856 13.41 15.5592 13.5096L12.0792 10.0296L15.5976 5.9244L15.6 6V13.2Z" fill="white"/>
</svg>
